<svg width="73" height="46" viewBox="0 0 73 46" fill="none" xmlns="http://www.w3.org/2000/svg">
<path d="M7.3495 0.0497835V5.92282V9.43353L0 9.43353V18.686H7.3495V30.8258C7.3495 36.2395 7.38617 39.8286 10.893 42.6205C19.1612 49.2033 28.4137 44.6876 31.3994 40.7017L55.1869 9.43353H45.6719C42.5877 9.43353 41.1441 11.9487 40.1598 13.1739L24.1484 33.9428C20.9001 37.191 17.2582 35.3208 17.2582 30.8258V18.686H24.903L28.4137 9.43353H17.2582V3.52767C17.2582 0.220397 14.6771 -0.168952 13.3866 0.0497834L7.3495 0.0497835Z" fill="#F1F1F1"/>
<path d="M43.1784 43.1299L36.5835 33.8446L42.9487 25.4668L58.0742 45.9844H48.9858C45.3438 45.9844 44.097 44.508 43.1784 43.1299Z" fill="#999999"/>
<path d="M30.2838 26.0028L24.903 18.6861L28.4137 9.43359C30.4807 9.43359 31.9025 10.6473 32.3181 11.1941L36.9771 17.3297L33.6305 21.639L30.2838 26.0028Z" fill="#999999"/>
<path d="M71.3102 14.8721L62.6198 22.5879C64.3856 22.5909 65.9785 23.0607 67.399 23.9961C68.8242 24.9346 69.9545 26.2029 70.7887 27.8018C71.6229 29.4007 72.0397 31.2256 72.0397 33.2764C72.0397 35.9528 71.449 38.2644 70.2672 40.2109C69.1202 42.1226 67.504 43.5998 65.4186 44.6426C63.496 45.5876 61.2609 45.9296 58.61 45.9688L58.0739 45.9727L52.275 38.1133C53.7074 38.622 55.3129 38.9159 56.8239 38.9844C60.2353 38.7646 63.2125 36.8805 63.2125 33.71C63.2124 30.6392 61.6292 28.7995 58.6188 28.2598C58.2689 28.1783 57.8804 28.1277 57.441 28.1182C57.1623 28.1001 56.8738 28.0908 56.5758 28.0908C55.3252 28.0908 54.0652 28.2554 52.9049 28.5703V23.0576L58.733 17.4951H49.0514L55.1617 9.44922H71.3102V14.8721Z" fill="#FF007F"/>
</svg>
